<svg xmlns="http://www.w3.org/2000/svg" width="24" height="24" fill="none" viewBox="0 0 24 24">
  <path fill="#25455F" fill-rule="evenodd" d="M4.19 2.69a1.5 1.5 0 0 1 1.06-.44h9a.75.75 0 0 1 .531.22l5.25 5.25c.14.14.22.331.22.53v12a1.5 1.5 0 0 1-1.5 1.5H5.25a1.5 1.5 0 0 1-1.5-1.5V3.75c0-.398.158-.78.44-1.06Zm9.31 1.06H5.25v16.5h13.5V9h-4.5a.75.75 0 0 1-.75-.75v-4.5ZM15 4.81l2.69 2.69H15V4.81Zm-3 5.69a.75.75 0 0 1 .75.75v4.19l1.345-1.345a.75.75 0 0 1 1.061 1.06l-2.625 2.625a.75.75 0 0 1-1.06 0l-2.626-2.625a.75.75 0 1 1 1.061-1.06l1.345 1.344V11.25a.75.75 0 0 1 .75-.75Z" clip-rule="evenodd"/>
</svg>
