<svg xmlns="http://www.w3.org/2000/svg" width="24" height="24" fill="none" viewBox="0 0 24 24">
  <path fill="#ffffff" fill-rule="evenodd"
        d="M11.999.296C5.373.296 0 5.67 0 12.297c0 5.302 3.438 9.8 8.207 11.386.6.11.82-.26.82-.578 0-.285-.01-1.04-.017-2.04-3.338.724-4.042-1.61-4.042-1.61C4.422 18.07 3.635 17.7 3.635 17.7c-1.09-.745.083-.73.083-.73 1.204.085 1.838 1.238 1.838 1.238 1.07 1.833 2.808 1.304 3.493.997.109-.776.419-1.304.761-1.604-2.664-.303-5.466-1.333-5.466-5.931 0-1.31.468-2.381 1.236-3.22-.123-.304-.535-1.524.117-3.176 0 0 1.008-.323 3.3 1.23.957-.266 1.984-.4 3.004-.404a11.51 11.51 0 0 1 3.004.404c2.291-1.553 3.297-1.23 3.297-1.23.655 1.652.243 2.872.12 3.176.768.839 1.232 1.91 1.232 3.22 0 4.61-2.806 5.624-5.478 5.921.43.37.815 1.103.815 2.223 0 1.604-.015 2.898-.015 3.292 0 .321.216.694.825.577C20.565 22.093 24 17.598 24 12.298 24 5.668 18.627.296 11.999.296Z"
        clip-rule="evenodd"/>
</svg>
