<svg xmlns="http://www.w3.org/2000/svg" width="24" height="24" fill="none" viewBox="0 0 24 24">
  <g fill="#1D6386" clip-path="url(#a)">
    <path fill-rule="evenodd" d="M12 2C6.477 2 2 6.477 2 12s4.477 10 10 10 10-4.477 10-10S17.523 2 12 2ZM0 12C0 5.373 5.373 0 12 0s12 5.373 12 12-5.373 12-12 12S0 18.627 0 12Z" clip-rule="evenodd"/>
    <path d="M11.846 17.996a5.578 5.578 0 0 0 2.345-.636l.175-.72c-.593.28-1.897.558-1.897-.564.029-.398.098-.792.207-1.176l.354-1.247c.38-1.337.396-1.392.431-1.766.024-.255.035-.433.035-.534 0-1.075-.833-1.645-1.973-1.645-.814.07-1.61.285-2.348.636L9 11.06c.486-.182 1.323-.401 1.682-.056.36.346.103 1.322-.024 1.8l-.656 2.32c-.218.907-.335 1.792.361 2.405.42.333.949.5 1.483.467ZM14.333 6.253a1.5 1.5 0 1 0-1.666 2.494 1.5 1.5 0 0 0 1.666-2.494Z"/>
  </g>
  <defs>
    <clipPath id="a">
      <path fill="#fff" d="M0 0h24v24H0z"/>
    </clipPath>
  </defs>
</svg>
