<svg xmlns="http://www.w3.org/2000/svg" width="24" height="24" fill="none" viewBox="0 0 24 24">
  <path fill="#25455F" d="M18.75 10.875a1.125 1.125 0 1 1-2.25 0 1.125 1.125 0 0 1 2.25 0Z"/>
  <path fill="#25455F" fill-rule="evenodd"
        d="M6 3a.75.75 0 0 0-.75.75v3h-1c-1.254 0-2.375.952-2.375 2.25v7.5c0 .414.336.75.75.75H5.25v3.375c0 .414.336.75.75.75h12a.75.75 0 0 0 .75-.75V17.25h2.625a.75.75 0 0 0 .75-.75V9c0-1.298-1.12-2.25-2.375-2.25h-1v-3A.75.75 0 0 0 18 3H6ZM4.25 8.25h15.5c.54 0 .875.391.875.75v6.75H18.75v-1.5a.75.75 0 0 0-.75-.75H6a.75.75 0 0 0-.75.75v1.5H3.375V9c0-.359.334-.75.875-.75Zm2.5-1.5h10.5V4.5H6.75v2.25Zm0 8.25h10.5v4.875H6.75V15Z"
        clip-rule="evenodd"/>
</svg>
