<svg xmlns="http://www.w3.org/2000/svg" width="24" height="24" fill="none" viewBox="0 0 24 24">
  <path fill="#25455F" fill-rule="evenodd"
        d="M3.75 13.5a.75.75 0 0 1 .75-.75 6.75 6.75 0 0 1 6.75 6.75.75.75 0 0 1-1.5 0 5.25 5.25 0 0 0-5.25-5.25.75.75 0 0 1-.75-.75Z"
        clip-rule="evenodd"/>
  <path fill="#25455F" fill-rule="evenodd"
        d="M3.75 9a.75.75 0 0 1 .75-.75A11.25 11.25 0 0 1 15.75 19.5a.75.75 0 0 1-1.5 0A9.75 9.75 0 0 0 4.5 9.75.75.75 0 0 1 3.75 9Z"
        clip-rule="evenodd"/>
  <path fill="#25455F" fill-rule="evenodd"
        d="M3.75 4.5a.75.75 0 0 1 .75-.75A15.75 15.75 0 0 1 20.25 19.5a.75.75 0 0 1-1.5 0A14.25 14.25 0 0 0 4.5 5.25a.75.75 0 0 1-.75-.75Z"
        clip-rule="evenodd"/>
  <path fill="#25455F" d="M4.875 20.25a1.125 1.125 0 1 0 0-2.25 1.125 1.125 0 0 0 0 2.25Z"/>
</svg>
