<svg xmlns="http://www.w3.org/2000/svg" width="234" height="64" fill="none" viewBox="0 0 234 64">
  <g clip-path="url(#a)">
    <path fill="#F47C00"
          d="M230.631 43.244H100.324a2.307 2.307 0 0 0-2.306 2.307v16.142A2.307 2.307 0 0 0 100.324 64h130.307a2.307 2.307 0 0 0 2.307-2.307V45.551a2.307 2.307 0 0 0-2.307-2.307ZM110.251 35.38c-3.812 0-6.945-1.366-9.386-3.815-3.514-3.52-3.425-7.868-3.425-13.873 0-6.004-.093-10.357 3.425-13.88 2.437-2.441 5.574-3.808 9.386-3.808 6.497 0 11.582 3.714 12.806 10.996h-6.899c-.684-2.786-2.441-4.93-5.863-4.93-1.855 0-3.368.68-4.344 1.794-1.322 1.48-1.717 3.132-1.717 9.832 0 6.7.395 8.344 1.717 9.82.98 1.12 2.493 1.803 4.344 1.803 3.422 0 5.179-2.148 5.863-4.93h6.899c-1.224 7.282-6.354 10.996-12.806 10.996v-.004Zm33.472-3.128c-1.562 1.664-4.153 3.129-7.916 3.129-3.763 0-6.306-1.469-7.872-3.129-2.295-2.392-2.88-5.284-2.88-9.918 0-4.633.585-7.477 2.88-9.877 1.566-1.66 4.109-3.117 7.872-3.117s6.35 1.457 7.916 3.117c2.299 2.396 2.885 5.284 2.885 9.877 0 4.593-.586 7.526-2.885 9.918Zm-4.938-16.077c-.733-.732-1.709-1.123-2.978-1.123-1.27 0-2.205.39-2.937 1.123-1.314 1.322-1.465 3.515-1.465 6.16 0 2.643.151 4.88 1.465 6.195.732.736 1.667 1.135 2.937 1.135 1.269 0 2.245-.395 2.978-1.135 1.322-1.318 1.468-3.564 1.468-6.196 0-2.632-.15-4.837-1.468-6.16Zm25.796 18.913V19.69c0-3.47-2.197-4.638-4.203-4.638-2.005 0-4.247 1.168-4.247 4.638v15.394h-6.362V9.625h6.216v2.352c1.66-1.766 4.003-2.637 6.346-2.637 2.547 0 4.597.826 6.013 2.25 2.058 2.042 2.591 4.434 2.591 7.225v16.273h-6.354Zm18.371 0c-5.178 0-7.383-3.662-7.383-7.286v-12.6h-2.685v-4.836h2.685v-7.53c2.656 0 6.358-1.396 6.358-1.396v8.922h4.491v4.837h-4.491v12.216c0 1.465.688 2.299 2.205 2.299h2.291v5.374h-3.471Zm19.922 0V32.89c-1.709 1.717-3.319 2.445-6.253 2.445-2.933 0-4.983-.728-6.496-2.254-1.363-1.412-2.1-3.47-2.1-5.72 0-4.051 2.783-7.371 8.698-7.371h6.005v-1.273c0-2.779-1.359-4.012-4.732-4.012-2.445 0-3.567.59-4.89 2.108l-4.059-3.959c2.493-2.738 4.938-3.51 9.189-3.51 7.136 0 10.846 3.022 10.846 8.986v16.76h-6.208v-.003Zm-.15-10.744h-5.029c-2.298 0-3.567 1.07-3.567 2.872 0 1.802 1.171 2.933 3.669 2.933 1.753 0 2.884-.138 4.003-1.216.679-.64.924-1.656.924-3.226v-1.363Zm27.919 7.912c-1.562 1.664-4.153 3.129-7.92 3.129-3.768 0-6.306-1.469-7.868-3.129-2.299-2.392-2.88-5.284-2.88-9.918 0-4.633.581-7.477 2.88-9.877 1.562-1.66 4.105-3.116 7.868-3.116s6.358 1.456 7.92 3.116c2.295 2.396 2.876 5.284 2.876 9.877 0 4.593-.577 7.526-2.876 9.918Zm-4.934-16.077c-.733-.732-1.717-1.123-2.986-1.123-1.27 0-2.201.39-2.929 1.123-1.323 1.322-1.473 3.515-1.473 6.16 0 2.644.15 4.881 1.473 6.195.728.736 1.659 1.135 2.929 1.135 1.269 0 2.253-.395 2.986-1.135 1.314-1.318 1.46-3.564 1.46-6.196 0-2.632-.146-4.837-1.46-6.159Z"/>
    <path fill="#fff"
          d="M4.809.578C2.164.578 0 2.726 0 5.354v53.87C0 61.852 2.164 64 4.809 64H67.84c2.645 0 4.809-2.148 4.809-4.776V5.354c0-2.628-2.164-4.776-4.809-4.776H4.81Z"/>
    <path fill="#F47C00"
          d="M6.46 39.042C8.486 48.504 10.187 57.515 16.114 64H4.809C2.164 64 0 61.852 0 59.224V5.354C0 2.726 2.164.578 4.809.578h8.168C11.012 2.35 9.296 4.402 7.778 6.72 1.314 16.606 3.971 27.407 6.46 39.042ZM67.84.578H55.022c3.034 3.035 5.593 6.964 7.526 11.85L43.06 16.541c-2.136-4.093-5.382-7.498-11.732-6.16-3.503.741-5.826 2.706-6.855 4.858-1.265 2.653-1.888 5.627 1.139 19.76 3.023 14.128 4.809 16.597 7.046 18.51 1.819 1.545 4.752 2.404 8.254 1.663 6.355-1.338 7.921-5.76 8.198-10.361l19.486-4.117c.46 10.08-2.66 17.887-8.169 23.306h7.412c2.645 0 4.809-2.148 4.809-4.776V5.354c0-2.628-2.164-4.776-4.809-4.776Z"/>
    <path fill="#fff"
          d="M110.222 57.528c-.691.691-1.533 1.078-2.656 1.078-1.123 0-1.977-.387-2.669-1.078-.997-.997-.968-2.226-.968-3.93 0-1.705-.029-2.933.968-3.93.692-.692 1.55-1.078 2.669-1.078 1.118 0 1.965.386 2.656 1.078.997.997.981 2.225.981 3.93 0 1.704.012 2.933-.981 3.93Zm-1.424-6.697c-.276-.317-.703-.524-1.232-.524s-.969.207-1.245.524c-.374.415-.472.871-.472 2.767 0 1.895.098 2.351.472 2.766.276.317.72.525 1.245.525.525 0 .956-.208 1.232-.525.375-.415.484-.87.484-2.766s-.109-2.352-.484-2.767ZM117.167 50.392v2.42h3.885v1.717h-3.885v4h-1.925v-9.85h6.485v1.713h-4.565.005ZM127.402 50.392v2.42h3.885v1.717h-3.885v4h-1.924v-9.85h6.484v1.713h-4.564.004ZM135.713 58.524v-9.849h1.924v9.85h-1.924ZM145.302 58.606c-1.05 0-1.937-.358-2.657-1.078a2.85 2.85 0 0 1-.801-1.481c-.11-.553-.167-1.371-.167-2.45 0-1.077.057-1.895.167-2.448a2.82 2.82 0 0 1 .801-1.481c.72-.72 1.603-1.078 2.657-1.078 1.896 0 3.291 1.106 3.624 3.112h-1.948c-.208-.842-.732-1.395-1.66-1.395-.525 0-.94.166-1.233.512-.402.427-.484.87-.484 2.779 0 1.908.082 2.351.484 2.778.289.346.704.513 1.233.513.928 0 1.452-.553 1.66-1.396h1.948c-.333 2.006-1.741 3.113-3.624 3.113ZM152.657 58.524v-9.849h1.924v9.85h-1.924ZM164.552 58.524l-.582-1.74h-3.498l-.594 1.74h-2.006l3.58-9.849h1.51l3.596 9.85h-2.006Zm-2.294-6.944-1.245 3.584h2.449l-1.204-3.584ZM169.853 58.524v-9.849h1.924v8.133h4.467v1.716h-6.391ZM191.317 57.585c-.651.65-1.579.94-2.6.94h-3.556v-9.85h3.556c1.025 0 1.949.29 2.6.94 1.106 1.107.996 2.461.996 3.942 0 1.48.11 2.917-.996 4.023v.005Zm-1.343-6.583c-.334-.402-.773-.61-1.44-.61h-1.452v6.415h1.452c.663 0 1.106-.207 1.44-.61.358-.443.415-1.147.415-2.64s-.057-2.115-.415-2.559v.004ZM196.353 58.524v-9.849h6.485v1.713h-4.565v2.31h3.885v1.718h-3.885v2.392h4.565v1.716h-6.485ZM213.793 58.524v-5.74l-1.879 3.735h-1.302l-1.896-3.735v5.74h-1.924v-9.849h1.895l2.572 5.326 2.558-5.326h1.896v9.85h-1.924.004ZM226.05 57.528c-.691.691-1.533 1.078-2.656 1.078-1.123 0-1.977-.387-2.669-1.078-.997-.997-.968-2.226-.968-3.93 0-1.705-.029-2.933.968-3.93.692-.692 1.55-1.078 2.669-1.078s1.965.386 2.656 1.078c.997.997.981 2.225.981 3.93 0 1.704.012 2.933-.981 3.93Zm-1.424-6.697c-.276-.317-.703-.524-1.232-.524s-.968.207-1.245.524c-.374.415-.472.871-.472 2.767 0 1.895.098 2.351.472 2.766.277.317.72.525 1.245.525.525 0 .956-.208 1.232-.525.375-.415.485-.87.485-2.766s-.11-2.352-.485-2.767Z"/>
  </g>
  <defs>
    <clipPath id="a">
      <path fill="#fff" d="M0 0h234v64H0z"/>
    </clipPath>
  </defs>
</svg>
